<svg width="62" height="177" viewBox="0 0 62 177" fill="none" xmlns="http://www.w3.org/2000/svg">
<mask id="mask0_5_606" style="mask-type:alpha" maskUnits="userSpaceOnUse" x="0" y="0" width="62" height="177">
<path d="M62 176.071H0V0.0708008C0 0.0708008 16 0.0706017 33.5 2.06973C51 4.06885 62 7.0708 62 7.0708V176.071Z" fill="#D9D9D9"/>
</mask>
<g mask="url(#mask0_5_606)">
<path d="M49.3833 84.7614H47.6167V87.3658H46.737V88.2419H47.6167V90.8464H46.7418V89.975H45.874V89.1061H44.9943V88.2348H44.1146V87.3706H44.9943V86.5017H45.874V85.6303H46.7538V84.7614H44.117V85.6327H43.2373V86.5017H42.3647V85.6327H41.4826V84.7614H38.8458V85.6327H37.9733V84.7614H35.3365V85.6327H34.4161V86.5017H33.5339V87.373H32.6542V88.242H31.7745V89.1133H30.8996V88.242H30.0198V87.373H29.1401V86.5017H28.2604V85.6327H27.3807V84.7614H24.7439V85.6327H23.8594V84.7614H21.2226V85.6327H20.3333V86.5017H19.4584V85.6327H18.5786V84.7614H15.9419V85.6375H16.8216V86.5089H17.7037V87.3706H18.5834V88.2348H17.6941V89.1061H16.812V89.975H15.9323V90.8464H15.0597V88.242H15.9395L15.9395 87.3658H15.0597L15.0597 84.7614H13.2931L13.2931 186.571H15.0597V183.959H15.9395V183.083H15.0597V180.479H15.9323V181.35H16.812L16.812 182.219H17.6941L17.6941 183.09H18.5738V183.955H17.6941V184.821H16.812V185.692H15.9323V186.569H18.569V185.7H19.4584V184.821H20.3333V185.692H21.213V186.561H23.8498V185.692H24.7247V186.561H27.3615V185.692H28.2412V184.821H29.1209V183.959H30.0007V183.09H30.8804V182.219H31.7553V183.09H32.635V183.959H33.5148V184.821H34.3969V185.692H35.2766V186.561H37.9134V185.692H38.7859V186.561H41.4227V185.692H42.3048V184.821H43.1773V185.692H44.0571V186.561H46.6938V185.685H45.874V184.821H44.9943V183.952H44.1146V183.088H44.9943V182.217H45.874V181.35H46.7538V180.479H47.6287V183.083H46.737V183.959H47.6167V186.571H49.3834L49.3833 84.7614ZM24.7391 185.695V184.821H25.614V185.685L24.7391 185.695ZM37.9349 85.6351V86.4993H37.0624V85.6351H37.9349ZM39.7016 184.821V183.952H38.8219V183.081H37.9421V182.212H37.0624V181.343H36.1803V180.474H35.3006V179.603H34.4209V178.734H33.5411V177.862H32.6614V176.998H33.5411V176.129H34.4209V175.246H35.3006V174.377H36.1803V173.506H37.0552V174.389H37.935V175.246H38.8147V176.129H39.6944V176.998H40.5765V177.879H41.4562V178.734H40.5765L40.5765 179.603H39.7016V178.734H38.8219V177.862H37.9421V176.993H37.0624V176.122H36.1755V176.993H35.2958V177.879H36.1755V178.739H37.0552V179.61H37.935V180.479H38.8147V181.35H39.6944V182.219H40.5813V181.35H41.461V180.479H42.3432V179.61H43.2229V178.739H44.1026V177.879H44.9823V177.008H45.874V176.139H46.7538V175.246H47.6287V177.862H46.737V178.734H45.8573V179.603H44.9751V180.474H44.0954V181.343H43.2157V182.214H42.336V183.083H41.4562V183.955H40.5765V184.821H39.7016ZM22.0999 184.821L22.0999 183.952H21.2202V183.081H20.3405V182.212H19.4584V181.343H18.5786V180.474H17.6989L17.6989 179.603H16.8192V178.734H15.9395V177.862H15.0597V175.246H15.9323V176.129H16.812V176.998H17.6941V177.879H18.5738V178.739H19.4536V179.61H20.3333V180.479H21.213V181.35H22.0927V182.219H22.9796V181.35H23.8594V180.479H24.7391V179.61H25.6212V178.739H26.5009V177.879H27.3807V176.993H26.5009V176.122H25.614L25.614 176.993H24.7343V177.862H23.8546V178.734H22.9749V179.603H22.0999V178.734H21.2202V177.879H22.0999V177.008H22.9796V176.139H23.8594V175.246H24.7391V174.377H25.6212V173.506H26.4937V174.389H27.3735V175.246H28.2532V176.129H29.1353V176.998H30.015V177.862H29.1353V178.734H28.2532V179.603H27.3735V180.474H26.4937V181.343H25.614V182.214H24.7343V183.083H23.8546V183.955H22.9749V184.821H22.0999ZM21.213 160.464H22.0927V161.326H21.213V162.2H20.3405V161.329H19.4584V160.467H20.3405V159.596H21.213V160.464ZM15.9395 154.372V155.241H16.8192L16.8192 156.113H17.7013L17.7013 156.982H18.581V157.853H19.4608V158.729H18.5738V159.588H17.6989V158.729H16.8192V157.858H15.9395V156.989H15.0597V154.384L15.9395 154.372ZM15.9395 159.593V160.467H16.8192V161.329H15.9323V162.2H15.0597L15.0597 159.596L15.9395 159.593ZM15.9395 163.945H16.8192V163.074H17.6989V162.205H18.5738V163.076H19.4536V163.94H18.5738V164.812H17.6941V165.671H16.812V166.552H15.9323V167.421H15.0597V164.816H15.9395V163.945ZM15.9395 169.166H16.8192V168.304H17.6989V167.435H18.5786V166.557H19.4584V165.688H20.3405V164.816H21.2202V163.947H22.0999V163.076H22.9796V162.207H23.8594V161.336H24.7391V160.46H23.8594V159.588H22.9796V158.729H22.0999V157.858H21.2202V156.989H20.3405V156.096H19.4584V155.227H18.5786V154.356H17.6989V153.487H16.8192V152.615H15.9395V151.746H15.0597L15.0597 149.154H15.9395V148.283H16.8192V147.414H17.6989L17.6989 146.542H18.5738L18.5738 147.414H19.4536V148.278H18.5738V149.154H17.6941L17.6941 150.025H16.812V150.901H17.6941V151.763H18.5786V150.894H19.4584V150.023H20.3405V149.154H21.213V150.023H22.0927V150.887H21.213V151.758H20.3333L20.3333 152.627H19.4536V153.503H20.3333V154.375H21.2202V153.503H22.0999V152.634H22.9796V151.763H23.8546V152.634H24.7343V153.499H23.8546V154.368H22.9749V155.239H22.0927V156.115H22.9749V156.984H23.8594V156.115H24.7391V155.244H25.6212V154.375H26.4937V155.244H27.3735V156.096H26.4937V156.967H25.614V157.836H24.7343V158.729H25.614V159.596H26.5009V158.729H27.3807V157.86H28.2604V156.989H29.1353V157.86H30.015V158.729H29.1353V159.588H28.2532V160.46H27.3735V161.336H28.2532V162.207H29.1401V161.336H30.0198V160.467H30.8996V159.596H31.7817V158.729H32.6614V157.86H33.5411V156.989H34.4161V157.86H35.2958V158.729H36.1755V159.596H37.0624V158.729H37.9421V157.853H37.0624V156.984H36.1803V156.096H35.3006V155.232H36.1803V154.363H37.0552V155.232H37.935V156.103H38.8147V156.972H39.7016V156.103H40.5813V155.227H39.7016V154.356H38.8219V153.487H37.9421V152.622H38.8219V151.751H39.6944V152.622H40.5765V153.491H41.4562V154.363H42.3432V153.491H43.2229V152.615H42.3432V151.746H41.461V150.875H40.5813V150.011H41.461V149.154H42.336V150.023H43.2157V150.894H44.0954V151.763H44.9823V150.894H45.874V150.018H44.9943V149.154H44.1146V148.285H43.2349V147.421H44.1146V146.549H44.9871V147.421H45.8692V148.29H46.749V149.154H47.6287V151.758H46.737V152.627H45.8573V153.499H44.9751V154.368H44.0954V155.239H43.2157V156.096H42.336V156.967H41.4562V157.836H40.5765V158.729H39.6944V159.588H38.8147V160.46H37.935V161.336H38.8147V162.207H39.6944V163.076H40.5765V163.947H41.4562V164.816H42.336V165.688H43.2157V166.557H44.0954V167.428H44.9751V168.304H45.8573V169.168H46.737V170.037H47.6167V172.642H46.737V173.513H45.8573V174.382H44.9751V175.246H44.1026V174.375H43.2229V173.511H44.1026V172.642H44.9823V171.77H45.874V170.894H44.9943V170.025H44.1074V170.901H43.2277V171.773H42.348V172.642H41.473V171.773H40.5933V170.909H41.473V170.037H42.3551V169.168H43.2349V168.292H42.3551V167.421H41.4682V168.292H40.5765V169.161H39.6944V170.032H38.8219V169.161H37.9421V168.304H38.8219V167.435H39.7016V166.557H40.5813V165.671H39.7016V164.802H38.8147V165.671H37.935V166.552H37.0552V167.421H36.1803V166.552H35.3006V165.688H36.1803V164.816H37.0624V163.947H37.9421V163.069H37.0624V162.2H36.1755V163.069H35.2958V163.94H34.4161V164.812H33.5411V163.94H32.6614V163.076H33.5411V162.207H34.4209V161.336H35.3006V160.46H34.4209V159.588H33.5339V160.46H32.6542V161.329H31.7745V162.2H30.8948V163.069H30.015V163.94H29.1353V164.812H28.2604V163.94H27.3807V163.069H26.5009V162.2H25.614V163.069H24.7343V163.947H25.614V164.816H26.4937V165.688H27.3735V166.552H26.4937V167.421H25.6212V166.552H24.7391V165.671H23.8594V164.802H22.9749V165.671H22.0927V166.557H22.9749V167.428H23.8546V168.304H24.7343V169.161H23.8546V170.032H22.9796V169.161H22.0999V168.292H21.2202V167.421H20.3333V168.292H19.4536V169.168H20.3333V170.037H21.213V170.909H22.0927V171.773H21.213V172.642H20.3405V171.773H19.4584V170.901H18.5786V170.032H17.6941V170.901H16.812V171.777H17.6941V172.649H18.5738V173.518H19.4536V174.382H18.5738V175.246H17.6989V174.375H16.8192V173.506H15.9395V172.634H15.0597L15.0597 170.037H15.9395V169.166ZM15.9395 137.834H15.0597V133.487H15.9395V132.611H15.0597V130.004H15.9323V130.875H16.812V131.744H17.6941V132.615H18.5738V133.479H17.6941V134.351H16.812V135.22H15.9323L15.9323 136.096H16.812V136.967H17.6941V137.836H18.5738V138.7H17.6941L17.6941 139.579H16.812V140.448H15.9323V141.319H15.0597L15.0597 138.715H15.9395V137.834ZM21.213 109.994H22.0927V110.854H21.213V111.722H20.3405V110.854H19.4584V109.989H20.3405V109.118H21.213V109.994ZM15.9395 103.902V104.773H16.8192V105.645H17.7013V106.514L18.581 106.514V107.385H19.4607V108.249H18.5738V109.12H17.6989V108.249H16.8192V107.378H15.9395V106.509H15.0597V103.912L15.9395 103.902ZM15.9395 109.123L15.9395 109.994H16.8192V110.854H15.9323V111.722H15.0597V109.118L15.9395 109.123ZM15.9395 113.475H16.8192V112.603H17.6989V111.734H18.5738V112.603H19.4536V113.468H18.5738V114.339H17.6941V115.21H16.812L16.812 116.082H15.9323V116.95H15.0597V114.346H15.9395V113.475ZM15.9395 118.696H16.8192V117.824H17.6989V116.955H18.5786V116.084H19.4584V115.215H20.3405V114.344H21.2202V113.487H22.0999V112.615H22.9796V111.746H23.8594V110.854H24.7391V109.977H23.8594V109.108H22.9796V108.237H22.0999V107.366H21.2202V106.497H20.3405V105.626H19.4584V104.757H18.5786V103.885H17.6989L17.6989 103.016H16.8192V102.145H15.9395V101.278H15.0597V98.674H15.9395L15.9395 97.8027H16.8192V96.9337H17.6989V96.0624H18.5738V96.9337H19.4536V97.8075H18.5738V98.6764H17.6941V99.5477H16.812V100.424H17.6941V101.293H18.5786L18.5786 100.424H19.4584V99.5525H20.3405V98.6836H21.213V99.5525H22.0927V100.417H21.213V101.278H20.3333V102.147H19.4536V103.023H20.3333V103.912H21.2202V103.04H22.0999V102.171H22.9796V101.3H23.8546V102.164H24.7343V103.028H23.8546V103.897H22.9748V104.769H22.0927V105.645H22.9748V106.514H23.8594V105.645H24.7391L24.7391 104.773H25.6212V103.912H26.4937V104.773H27.3735V105.637H26.4937V106.509H25.614V107.378H24.7343V108.254H25.614V109.125H26.5009V108.254H27.3807V107.385H28.2604V106.514H29.1353V107.385H30.015V108.249H29.1353V109.12H28.2532V109.989H27.3735V110.854H28.2532V111.725H29.1401V110.854H30.0198V109.985H30.8996V109.113H31.7817V108.242H32.6614V107.373H33.5411V106.502H34.4161V107.373H35.2958V108.242H36.1755V109.113H37.0624V108.242H37.9421V107.366H37.0624V106.497H36.1803V105.626H35.3006V104.761H36.1803V103.912H37.0552V104.773H37.9349V105.645H38.8147V106.514H39.7016V105.645H40.5813V104.769H39.7016V103.897H38.8219V103.028H37.9421V102.164H38.8219V101.293H39.6944V102.164H40.5765V103.033H41.4562V103.912H42.3432V103.04H43.2229V102.164H42.3432V101.278H41.461V100.407H40.5813V99.5429H41.461V98.674H42.336V99.5429H43.2157V100.414H44.0954V101.283H44.9823L44.9823 100.414H45.874V99.5382H44.9943V98.6668H44.1146V97.7979H43.2349V96.9337H44.1146V96.0624H44.9871V96.9337H45.8692V97.8027H46.749V98.674H47.6287V101.278H46.737V102.147H45.8573V103.019H44.9751V103.888H44.0954V104.759H43.2157V105.628H42.336V106.499H41.4562V107.368H40.5765V108.24H39.6944V109.111H38.8147V109.98H37.9349L37.935 110.854H38.8147V111.725H39.6944V112.594H40.5765V113.487H41.4562V114.356H42.336V115.227H43.2157V116.096H44.0954V116.958H44.9751V117.827H45.8573V118.698H46.737V119.567H47.6167V122.171H46.737V123.043H45.8573V123.912H44.9751V124.783H44.1026V123.912H43.2229V123.047H44.1026V122.178H44.9823V121.307H45.874V120.429H44.9943V119.56H44.1074V120.429H43.2277V121.3H42.3479V122.169H41.473V121.3H40.5933V120.429H41.473V119.557H42.3551V118.688H43.2349V117.812H42.3551V116.941H41.4682V117.812H40.5765V118.681H39.6944V119.552H38.8219V118.681H37.9421V117.817H38.8219V116.948H39.7016V116.077H40.5813V115.201H39.7016V114.332H38.8147V115.21H37.935V116.082H37.0552V116.95H36.1803V116.082H35.3006V115.217H36.1803V114.346H37.0624V113.487H37.9421V112.611H37.0624V111.739H36.1755V112.601H35.2958V113.47H34.4161V114.341H33.5411V113.47H32.6614V112.606H33.5411V111.737H34.4208V110.854H35.3006V109.977H34.4208V109.108H33.5339V109.977H32.6542V110.854H31.7745V111.722H30.8948V112.601H30.015V113.47H29.1353V114.341H28.2604V113.47H27.3807V112.601H26.5009V111.73H25.614V112.601H24.7343V113.487H25.614V114.356H26.4937V115.227H27.3735V116.091L26.4937 116.091V116.96H25.6212V116.091H24.7391V115.22H23.8594V114.351H22.9748V115.21H22.0927V116.086H22.9748V116.958H23.8546V117.827H24.7343V118.691H23.8546V119.562H22.9796V118.691H22.0999V117.822H21.2202L21.2202 116.95H20.3333V117.822H19.4536V118.698H20.3333V119.567H21.213V120.429H22.0927V121.293H21.213L21.213 122.162H20.3405V121.293H19.4584V120.429H18.5786V119.56H17.6941V120.429H16.812V121.305H17.6941V122.176H18.5738V123.045H19.4536V123.909H18.5738V124.781H17.6989V123.909H16.8192V123.04H15.9395V122.169H15.0597V119.567H15.9395V118.696ZM15.9395 92.589H16.8192V91.7201H17.6989V90.8488H18.5786V89.9798H19.4584V89.1085H20.3405V88.2396H21.2202V87.3682H22.0999V86.4993H22.9748V87.3706H23.8546V88.242H24.7343V89.1109H25.614L25.614 89.9822H26.4937V90.8512H27.3735V91.7225H28.2532V92.5914H29.1353V93.4628H30.015V94.3365H29.1353V95.2054H28.2532V96.0768H27.3735V96.9457H26.4937V97.8075H25.6212V96.9361H24.7391V96.0672H23.8594V95.1959H22.9796V94.3365H22.0999V93.4652H21.2202V92.601H22.0999V91.7321H22.9748V92.601H23.8546V93.4723H24.7343V94.3365H25.614V95.2078H26.5009V94.3365H27.3807V93.4604H26.5009V92.5914H25.6212V91.7033H24.7391V90.8344H23.8594V89.9631H22.9796V89.0941H22.0927V89.9631H21.213V90.8344H20.3333V91.7033H19.4536V92.5747H18.5738V93.4436H17.6941V94.3365H16.812V95.2054H15.9323V96.0768H15.0597V93.4723H15.9395V92.589ZM40.5765 86.5017V87.3706H41.4562V88.242L42.336 88.2419V89.1109H43.2157V89.9822H44.0954V90.8512H44.9751V91.7225H45.8573V92.5914H46.737V93.4628H47.6167V96.0672H46.7418V95.1959H45.874V94.3365H44.9943L44.9943 93.4652H44.1146V92.5962H43.2349V91.7033H42.3551V90.8344H41.473V89.9631H40.5933V89.0941H39.7064V89.9631H38.8267V90.8344H37.9469V91.7033H37.0672V92.5747H36.1875V93.4436H35.3078V94.3365H36.1875V95.2078H37.0744V94.3365H37.9541V93.4676H38.8339V92.5962H39.7136V91.7273H40.5885V92.5962H41.4682V93.4604H40.5765V94.3365H39.6944V95.2054H38.8147V96.0768H37.9349V96.9457H37.0552V97.8075H36.1803V96.9361H35.3006V96.0672H34.4208V95.1959H33.5411V94.3365H32.6614V93.4723H33.5411V92.601H34.4208V91.7321H35.3006V90.8607H36.1803V89.9918H37.0624V89.1205H37.9421V88.2515H38.8219V87.3802H39.7016V86.5112L40.5765 86.5017ZM36.1755 87.3706V88.2348H35.3006V87.3706H36.1755ZM31.7745 91.7225V92.5866H30.8996V91.7225H31.7745ZM20.3405 95.203H21.213V96.0672H20.3405V95.203ZM22.0927 96.9361H21.2202V96.072H22.0927V96.9361ZM22.0927 96.9361H22.9677V97.8075H22.0999L22.0927 96.9361ZM22.9725 97.8051H23.8474V98.6692H22.9796L22.9725 97.8051ZM29.1329 104.761V103.912H30.0078V104.776L29.1329 104.761ZM26.4961 102.15V101.286H27.3687V102.15H26.4961ZM36.1707 99.5453V100.417H35.2958V99.5525L36.1707 99.5453ZM35.2958 102.15V101.286H36.1707V102.15H35.2958ZM32.659 104.761V103.912H33.5315V104.776L32.659 104.761ZM30.0222 101.281H29.1401V100.417H30.0198V99.5453H30.8996V98.6764H31.7745V99.5453H32.6542V100.417H33.5339V101.278H32.6542V102.147H31.7745V103.019H30.8996V102.147H30.0198L30.0222 101.281ZM26.5033 99.5453H27.3759V100.417H26.5009L26.5033 99.5453ZM38.8171 98.6764V99.5406H37.9445V98.6764H38.8171ZM30.9067 96.0648V96.9289H30.0198V96.0648H30.9067ZM30.027 96.9361V97.8075H29.1401V96.9433L30.027 96.9361ZM29.1473 97.8051V98.6692H28.2604V97.8051H29.1473ZM28.2652 98.6764V99.5406H27.3807V98.6764H28.2652ZM31.7937 105.618V104.754H32.6662V105.618H31.7937ZM33.5531 103.878V103.014H34.428V103.878H33.5531ZM34.4328 103.009V102.145H35.3078V103.009H34.4328ZM36.1923 101.269V100.405H37.0672V101.278L36.1923 101.269ZM37.0744 100.398V99.5334H37.9469L37.9469 100.417L37.0744 100.398ZM38.8339 98.6572V97.7931H39.7064V98.6572H38.8339ZM39.7136 97.7883V96.9242H40.5885V97.8075L39.7136 97.7883ZM41.4682 96.0528V96.917H40.5933V96.0528H41.4682ZM41.4682 96.0528V95.1887H42.3432V96.0528H41.4682ZM35.303 99.5334H34.428V98.6692H35.303V99.5334ZM34.4232 98.662H33.5483V97.7979H34.4232V98.662ZM33.5411 97.7931H32.6686V96.9289H33.5411V97.7931ZM32.6614 96.9218H31.7889V96.0576H32.6614V96.9218ZM31.7817 96.0528H30.8996V95.1887H31.7745L31.7817 96.0528ZM24.7343 99.5477H23.8594V98.6836H24.7343V99.5477ZM24.7343 99.5477H25.6092V100.417H24.7391L24.7343 99.5477ZM25.6164 100.419H26.4889V101.278H25.6212L25.6164 100.419ZM27.3759 102.159H28.2484V103.023H27.3807L27.3759 102.159ZM28.2556 103.028H29.1305V103.892H28.2604L28.2556 103.028ZM30.015 104.769H30.89V105.633H30.0198L30.015 104.769ZM30.8948 105.64H31.7697V106.504H30.8996L30.8948 105.64ZM43.2109 95.1911H42.3384V94.3365H43.2109V95.1911ZM20.3333 94.3365V95.2006H19.4584V94.3365H20.3333ZM44.0954 94.3365H43.2229V93.4723H44.0954V94.3365ZM32.6542 90.8607V91.7033H31.7817V90.8392L32.6542 90.8607ZM30.8948 91.7033H30.0198V90.8392H30.8948L30.8948 91.7033ZM19.4536 93.4508V94.3365H18.5786V93.4723L19.4536 93.4508ZM35.2958 88.23V89.0941H34.4208V88.23H35.2958ZM34.4161 89.0989V89.9631H33.5411V89.0989H34.4161ZM33.5339 89.9703V90.8344H32.6614L32.6614 89.9703H33.5339ZM29.1401 90.8344V89.9703H30.015V90.8344H29.1401ZM28.2604 89.9631V89.0989H29.1353V89.9631H28.2604ZM27.3807 89.0941V88.23H28.2532V89.0941H27.3807ZM26.5009 88.2228V87.3586H27.3735V88.2228H26.5009ZM41.461 110.854H40.5813V109.989H41.461V109.118H42.336V109.989H43.2157V110.854H42.336V111.722H41.461V110.854ZM46.7346 116.943V116.074H45.874V115.203H44.9943V114.334H44.1146L44.1146 113.463H43.2349V112.599H44.1146V111.73H44.9871V112.599H45.8692V113.487H46.749V114.356H47.6287V116.95L46.7346 116.943ZM46.7346 111.722V110.854H45.874V109.989H46.7538V109.118H47.6287V111.73L46.7346 111.722ZM46.7346 107.371H45.8549V108.242H44.9727V109.113H44.1002V108.242H43.2205V107.378H44.1002V106.506H44.9799V105.637H45.874V104.766H46.7538V103.912H47.6287V106.509H46.737L46.7346 107.371ZM46.7346 133.482H47.6143V137.836H46.737V138.712H47.6167V141.317H46.7418V140.445H45.874V139.579H44.9943V138.707H44.1146V137.843H44.9943V136.974H45.874V136.103H46.7538V135.227H45.874V134.358H44.9943V133.487H44.1146V132.622H44.9943V131.751H45.874V130.882H46.7538V130.004H47.6287V132.613H46.737L46.7346 133.482ZM20.3405 145.673H21.213V146.538H20.3405V145.673ZM22.0927 147.406H21.2202V146.542H22.0927V147.406ZM22.0927 147.406H22.9677V148.271H22.0999L22.0927 147.406ZM22.9725 148.275H23.8474V149.154H22.9796L22.9725 148.275ZM19.4584 136.093H18.5786V135.229H19.4584V134.36H20.3333V135.229H21.213V136.093H20.3333V136.965H19.4584V136.093ZM42.336 125.652H41.461V124.788H42.336V125.652ZM40.5813 123.919H41.4562V124.783H40.5813V123.919ZM40.5813 123.919H39.7064V123.055H40.5813V123.919ZM39.6992 123.05H38.8267V122.186H39.6992V123.05ZM43.2205 135.236H44.1002V136.101H43.2205V136.972H42.3479V136.101H41.4658V135.236H42.3479V134.368H43.2205V135.236ZM29.1401 155.239V154.375H30.015V155.239H29.1401ZM26.5033 152.627V151.763H27.3759V152.627H26.5033ZM36.1779 150.023V150.887H35.303V150.023H36.1779ZM35.303 152.627V151.763H36.1779V152.627H35.303ZM32.6662 155.239V154.375H33.5387V155.239H32.6662ZM30.0294 151.758H29.1401V150.894H30.0198V150.023H30.8996V149.154H31.7745V150.023H32.6542V150.894H33.5339V151.758H32.6542V152.627H31.7745V153.499H30.8996V152.627H30.0198L30.0294 151.758ZM26.5105 150.023H27.3831V150.887H26.5009L26.5105 150.023ZM38.8147 149.154V150.018H37.9421V149.154H38.8147ZM30.9044 146.542V147.406H30.0198V146.542H30.9044ZM30.0246 147.414V148.278H29.1401V147.414H30.0246ZM29.1449 148.283V149.154H28.2604V148.29L29.1449 148.283ZM28.2532 149.154L28.2532 150.018H27.3807V149.154H28.2532ZM31.7817 156.096V155.232H32.6542V156.096H31.7817ZM33.5411 154.356V153.491H34.4161V154.356H33.5411ZM34.4209 153.487V152.622H35.2958V153.487H34.4209ZM36.1803 151.746V150.882H37.0552V151.746H36.1803ZM37.0624 150.875V150.011H37.935V150.875H37.0624ZM38.8219 149.135V148.271H39.6944V149.154L38.8219 149.135ZM39.7016 148.266V147.402H40.5765V148.266H39.7016ZM41.4562 146.53V147.406H40.5813V146.542L41.4562 146.53ZM41.4562 146.53V145.666H42.3312V146.53H41.4562ZM35.291 150.011H34.4161V149.154H35.291V150.011ZM34.4161 149.154H33.5411V148.29H34.4161V149.154ZM33.5339 148.285H32.6614V147.421H33.5339V148.285ZM32.6542 147.414H31.7817V146.549H32.6542V147.414ZM31.7745 146.545H30.8996V145.681H31.7745V146.545ZM31.7745 142.193V141.329H32.647V142.193H31.7745ZM30.8924 138.712H30.0198V137.843H29.1401V136.972H28.2604V136.101H27.3807V135.236H28.2604V134.368H29.1401V133.496H30.0198V132.627H30.8996V131.756H31.7745V132.627H32.6542V133.496H33.5339V134.36H34.4161V135.229H35.2958V136.093H34.4161V136.965H33.5339V137.836H32.6542V138.705H31.7745V139.579H30.8996L30.8924 138.712ZM32.6542 141.324V140.46H33.5267V141.324H32.6542ZM33.5339 140.453V139.579H34.4089V140.443L33.5339 140.453ZM34.4137 139.584V138.719H35.2886V139.579L34.4137 139.584ZM35.2934 138.712V137.848H36.1683V138.712H35.2934ZM36.1731 137.843V136.979H37.048V137.843H36.1731ZM37.0552 136.972V136.108H37.9278V136.972H37.0552ZM30.8876 129.147V130.004H30.0198V129.14L30.8876 129.147ZM30.015 130.004V130.868H29.1401V130.004H30.015ZM29.1353 130.875V131.739H28.2604V130.875H29.1353ZM28.2532 131.744V132.613H27.3807V131.749L28.2532 131.744ZM27.3735 132.615V133.479H26.5009V132.615H27.3735ZM26.4937 133.484V134.351H25.6212V133.484H26.4937ZM25.614 134.356V135.22H24.7391V134.356H25.614ZM38.8147 136.089H37.9421V135.225H38.8147V136.089ZM37.935 135.22H37.0624V134.356H37.935V135.22ZM37.0552 134.351H36.1803V133.484H37.0552V134.351ZM36.1755 133.479H35.3006V132.615H36.1755V133.479ZM35.2958 132.608H34.4208V131.744H35.2958V132.608ZM34.4161 131.739H33.5411V130.875H34.4161V131.739ZM33.5339 130.868H32.6614V130.004H33.5339V130.868ZM32.6542 129.999H31.7817V129.135H32.6542V129.999ZM31.7745 129.128H30.8996V128.263H31.7745V129.128ZM20.3405 125.647L20.3405 124.783H21.213V125.647H20.3405ZM21.2202 124.778V123.914H22.0927L22.0927 124.778H21.2202ZM22.0999 123.907V123.043H22.9748V123.907H22.0999ZM22.9796 123.038V122.174H23.8546V123.038H22.9796ZM31.7817 124.778V123.914H32.6542V124.778H31.7817ZM33.5339 116.082V116.946H32.6614V116.082H33.5339ZM36.1707 118.693V119.557H35.2958V118.693H36.1707ZM27.3687 118.693V119.557H26.5009V118.693H27.3687ZM30.0054 116.082L30.0055 116.946H29.1401V116.082H30.0054ZM30.89 121.298H30.0198V120.429H29.1401V119.564H30.0198V118.696H30.8996V117.824H31.7745V118.696H32.6542V119.567H33.5339V120.429H32.6542V121.3H31.7745V122.169H30.8996L30.89 121.298ZM36.1635 121.298H35.2886V120.429H36.1635V121.298ZM26.489 121.298V120.429H27.3615V121.293L26.489 121.298ZM32.6494 123.907V123.043H33.5219V123.907H32.6494ZM33.5291 123.038L33.5291 122.174H34.4041V123.038H33.5291ZM34.4089 122.166V121.302H35.2838V122.166H34.4089ZM30.8828 115.225V116.089H30.0198V115.225H30.8828ZM29.1233 116.965V117.829H28.2604V116.965H29.1233ZM28.2412 117.834V118.698H27.3807V117.834H28.2412ZM26.4818 119.574V120.429H25.6212V119.564L26.4818 119.574ZM25.614 120.429V121.293H24.7391V120.429H25.614ZM23.8594 122.162V121.298H24.7343V122.162H23.8594ZM37.9421 121.298H38.8147V122.162H37.9421V121.298ZM37.9421 121.298H37.0696V120.429H37.9421V121.298ZM37.0624 120.426H36.1875V119.562H37.0624V120.426ZM35.303 118.686H34.428V117.822H35.303V118.686ZM34.4232 117.817H33.5483V116.953H34.4232V117.817ZM32.6614 116.077H31.7889V115.213H32.6614V116.077ZM31.7817 115.205H30.8996V114.341H31.7745L31.7817 115.205ZM27.3807 121.307H28.2532V122.171H27.3807L27.3807 121.307ZM28.2604 122.178H29.1353V123.043H28.2604V122.178ZM29.1401 123.047H30.015V123.912H29.1401V123.047ZM30.0198 123.919H30.8948V124.783H30.0198V123.919ZM30.8996 124.788H31.7745V125.652H30.8996V124.788ZM23.8594 135.229H24.7343V136.093H23.8594V135.229ZM24.7391 136.101H25.614V136.965H24.7391V136.101ZM25.6212 136.972H26.4937V137.836H25.6212V136.972ZM26.5009 137.841H27.3735V138.705H26.5009V137.841ZM27.3807 138.712H28.2532V139.579H27.3807V138.712ZM28.2604 139.579H29.1353V140.443H28.2604V139.579ZM29.1401 140.45H30.015V141.314H29.1401V140.45ZM30.0198 141.319H30.8948V142.183H30.0198V141.319ZM30.8996 142.19H31.7745V143.055H30.8996V142.19ZM24.7343 150.018H23.8594V149.154H24.7343V150.018ZM24.7343 150.018H25.6092V150.882H24.7391L24.7343 150.018ZM25.6164 150.889H26.489V151.754H25.6212L25.6164 150.889ZM27.3759 152.63H28.2484V153.494H27.3807L27.3759 152.63ZM28.2556 153.499H29.1305V154.363H28.2604L28.2556 153.499ZM30.015 155.239H30.89V156.096H30.0198L30.015 155.239ZM30.8948 156.11H31.7697V156.974H30.8996L30.8948 156.11ZM43.2109 145.661H42.3384V144.797H43.2109V145.661ZM42.3384 126.511V125.647H43.2109V126.511H42.3384ZM19.4536 125.647H20.3285V126.511H19.4584L19.4536 125.647ZM20.3285 144.797V145.661H19.4584V144.797H20.3285ZM44.0906 144.797H43.2181V143.933H44.0906V144.797ZM43.2181 127.392V126.528H44.0906L44.0906 127.392H43.2181ZM18.5738 126.528H19.4488V127.392H18.5786L18.5738 126.528ZM19.4488 143.933V144.797H18.5786L18.5786 143.933H19.4488ZM46.7418 146.538V145.666H45.874V144.797H44.9943V143.926H44.1146V143.057H43.2349V142.186H42.3551V141.317H41.473V140.445H40.5933V139.579H39.7064V140.448H38.8267V141.319H37.9469V142.188H37.0672V143.059H36.1875V143.928H35.3078V144.804H36.1875V145.676H37.0744V144.804H37.9541V143.935H38.8339V143.064H39.7136V142.195H40.5885V143.064H41.4682V143.928H40.5765V144.797H39.6944V145.666H38.8147V146.538H37.935V147.406H37.0552V148.278H36.1803V147.406H35.3006V146.538H34.4209V145.666H33.5411V144.797H32.6614V143.933H33.5411V143.062H34.4209V142.193H35.3006V141.321H36.1803V140.453H37.0624V139.579H37.9421V138.71H38.8219V137.839H39.7016V136.97H40.5765V137.839H41.4562V138.71H42.336V139.579H43.2157V140.45H44.0954V141.319H44.9751V142.19H45.8573V143.059H46.737V143.931H47.6167V146.538H46.7418ZM46.7418 128.263H45.8621V129.132H44.9799V130.004H44.1002V130.873H43.2205V131.744H42.3408V132.613H41.461V133.484H40.5765V134.356H39.7016V133.484H38.8219V132.613H37.9421V131.744H37.0624V130.873H36.1803V130.004H35.3006V129.132H34.4208V128.263H33.5411V127.392H32.6614V126.528H33.5411V125.659H34.4208V124.788H35.3006V123.919H36.1803V123.047H37.0552V123.919H37.935V124.788H38.8147V125.659H39.6944V126.528H40.5765V127.399H41.4562V128.263H40.5765V129.132H39.7016V128.263H38.8219V127.392H37.9421V126.523H37.0624V125.652H36.1755V126.523H35.2958V127.399H36.1755V128.268H37.0552V129.14H37.935V130.004H38.8147V130.875H39.6944V131.744H40.5813V130.875H41.461V130.004H42.3432V129.135H43.2229V128.263H44.1026V127.395H44.9823V126.523H45.874V125.654H46.7538V124.783H47.6287V127.392H46.737L46.7418 128.263ZM15.9323 124.788L15.9323 125.659H16.812V126.528H17.6941V127.399H18.5738V128.268H19.4536V129.14H20.3333V130.004H21.213V130.875H22.0927V131.744H22.9796V130.875H23.8594V130.004H24.7391V129.135H25.6212V128.263H26.5009V127.395H27.3807V126.518H26.5009V125.647H25.614V126.518H24.7343V127.387H23.8546V128.259H22.9749V129.128H22.0999V128.259H21.2202V127.395H22.0999V126.523H22.9796V125.654H23.8594L23.8594 124.783H24.7391V123.914H25.6212V123.043H26.4937V123.914H27.3735V124.783H28.2532V125.654H29.1353V126.523H30.015V127.387H29.1353V128.259H28.2532V129.128H27.3735V130.004H26.4937V130.873H25.614V131.744H24.7343V132.613H23.8546V133.484H22.9749V134.356H22.0999V133.484H21.2202V132.613H20.3405V131.744H19.4584V130.873H18.5786V130.004H17.6989V129.132H16.8192V128.263H15.9395V127.392H15.0597V124.788H15.9323ZM15.9323 143.062H16.812V142.193H17.6917V141.321H18.5714V140.453H19.4584V139.579H20.3405V138.71H21.2202V137.839H22.0999V136.97H22.9749V137.839H23.8546V138.71H24.7343V139.579H25.614V140.45H26.4937V141.319H27.3735V142.19H28.2532V143.059H29.1353V143.931H30.015V144.797H29.1353V145.666H28.2532V146.538H27.3735V147.406H26.4937V148.278H25.6212V147.406H24.7391V146.538H23.8594V145.666H22.9796V144.797H22.0999V143.926H21.2202V143.062H22.0999V142.193H22.9749V143.062H23.8546V143.933H24.7343V144.802H25.614V145.673H26.5009V144.802H27.3807V143.926H26.5009V143.057H25.6212V142.186H24.7391V141.317H23.8594V140.445H22.9796V139.579H22.0927V140.448H21.213V141.319H20.3333V142.188H19.4536V143.059H18.5738V143.928H17.6941V144.797H16.812V145.666H15.9323V146.538H15.0597V143.933H15.9395L15.9323 143.062ZM41.461 161.329H40.5813V160.467H41.461V159.596H42.336V160.467H43.2157V161.329H42.336V162.2H41.461V161.329ZM46.7346 167.421V166.552H45.874V165.671H44.9943V164.802H44.1146V163.931H43.2349V163.066H44.1146V162.198H44.9871V163.076H45.8692L45.8692 163.947H46.749V164.816H47.6287V167.421H46.7346ZM46.7346 162.2V161.329H45.874V160.467H46.7538V159.596H47.6287V162.2H46.7346ZM46.7346 157.848H45.8549V158.729H44.9727V159.588H44.1002V158.729H43.2205V157.865H44.1002V156.993H44.9799V156.125H45.874V155.253H46.7538V154.384H47.6287V156.979H46.737L46.7346 157.848ZM26.5009 183.955V183.09H27.3735V183.955H26.5009ZM30.8996 179.603V178.739H31.7745V179.603H30.8996ZM20.3405 176.122V175.246H21.213V176.122H20.3405ZM21.2202 175.246V174.382H22.0927V175.246H21.2202ZM22.0999 174.375V173.511H22.9749V174.382L22.0999 174.375ZM22.9796 173.506V172.642H23.8546V173.513L22.9796 173.506ZM33.5267 166.549V167.421H32.6542V166.557L33.5267 166.549ZM36.1635 169.161V170.032H35.2886V169.168L36.1635 169.161ZM36.1635 171.765H35.2886V170.901H36.1635V171.765ZM27.3735 169.168L27.3735 170.032H26.5009V169.168H27.3735ZM30.0102 166.557V167.421H29.1401V166.557H30.0102ZM30.8996 171.773H30.0198V170.901H29.1401L29.1401 170.037H30.0198V169.168H30.8996V168.304H31.7745V169.168H32.6542V170.037H33.5339V170.901H32.6542V171.773H31.7745V172.642H30.8996V171.773ZM26.5009 171.773V170.909H27.3735V171.773H26.5009ZM30.8948 165.688V166.552H30.0198V165.688H30.8948ZM29.1353 167.428V168.292H28.2604V167.428H29.1353ZM28.2532 168.304V169.161H27.3807V168.304H28.2532ZM26.4937 170.044V170.901H25.6212V170.037L26.4937 170.044ZM25.614 170.916V171.773H24.7391V170.909L25.614 170.916ZM23.8594 172.649V171.785H24.7343V172.642L23.8594 172.649ZM31.7817 175.246V174.382H32.6542V175.246H31.7817ZM32.6614 174.375V173.511H33.5339V174.382L32.6614 174.375ZM33.5411 173.506V172.642H34.4161V173.513L33.5411 173.506ZM34.4209 172.634V171.77H35.2958V172.642L34.4209 172.634ZM37.935 171.765H37.0624V170.901H37.935V171.765ZM37.0552 170.894H36.1803V170.03H37.0552V170.894ZM35.2958 169.154H34.4209V168.304H35.2958V169.154ZM34.4161 168.285H33.5411V167.421H34.4161V168.285ZM32.6542 166.545H31.7817V165.681H32.6542V166.545ZM31.7745 165.671H30.8996V164.807H31.7745V165.671ZM27.3807 171.777H28.2532V172.642H27.3807V171.777ZM28.2604 172.649H29.1353L29.1353 173.513H28.2604V172.649ZM29.1401 173.518H30.015V174.382H29.1401V173.518ZM30.0198 174.389H30.8948V175.246H30.0198V174.389ZM30.8996 175.246H31.7745V176.122H30.8996V175.246ZM37.9421 171.765H38.8147V172.642H37.9421V171.765ZM38.8219 172.637H39.6944V173.513H38.8219L38.8219 172.637ZM39.7016 173.506H40.5765V174.382H39.7016V173.506ZM40.5813 174.377H41.4562V175.246H40.5813V174.377ZM41.461 175.246H42.336V176.122H41.461V175.246ZM19.4584 176.129H20.3333V176.993H19.4584V176.129ZM42.3432 176.993V176.129H43.2157V176.993H42.3432ZM18.5786 176.993H19.4536V177.862H18.5786V176.993ZM30.0198 180.474V179.61H30.8948V180.474H30.0198ZM31.7817 179.61H32.6542V180.474H31.7817V179.61ZM43.2229 177.862V176.998H44.0954V177.862H43.2229ZM27.3807 183.083V182.219H28.2532V183.083H27.3807ZM28.2604 182.214V181.35H29.1353V182.214H28.2604ZM29.1401 181.343V180.479H30.015V181.343H29.1401ZM33.5339 180.479V181.343H32.6614V180.479H33.5339ZM34.4161 181.35V182.214H33.5411V181.35H34.4161ZM35.2958 182.219V183.083H34.4209V182.219H35.2958ZM36.1755 183.09V183.955H35.3006V183.09H36.1755ZM37.0552 87.3658H36.1803V86.5017H37.0552V87.3658ZM26.4937 86.5017V87.3658H25.6212V86.5017H26.4937ZM25.6212 183.959H26.4937V184.821H25.6212V183.959ZM36.1803 184.821V183.959H37.0552V184.821H36.1803ZM25.614 85.6303V86.4945H24.7391V85.6303H25.614ZM37.0624 185.69V184.821H37.935V185.685L37.0624 185.69Z" fill="url(#paint0_linear_5_606)"/>
<path d="M52.9072 84.7542H51.1406L51.1406 186.571H52.9072L52.9072 84.7542Z" fill="url(#paint1_linear_5_606)"/>
<path d="M11.5362 84.7542H9.76953L9.76954 186.571H11.5362L11.5362 84.7542Z" fill="url(#paint2_linear_5_606)"/>
<path d="M49.3833 -16.9244L47.6167 -16.9244V-14.3128H46.737V-13.4367H47.6167V-10.8323H46.7418V-11.7084H45.874V-12.5773H44.9943V-13.4487H44.1146V-14.3128H44.9943V-15.1817H45.874V-16.0531L46.7538 -16.0531V-16.9292L44.117 -16.9292V-16.0579L43.2373 -16.0579V-15.1889L42.3647 -15.1889V-16.0579L41.4826 -16.0579V-16.9292L38.8458 -16.9292V-16.0579L37.9733 -16.0579V-16.9292L35.3365 -16.9292V-16.0579H34.4161V-15.1889H33.5339V-14.3176H32.6542V-13.4487L31.7745 -13.4487V-12.5773H30.8996V-13.4487H30.0198V-14.3176H29.1401V-15.1889H28.2604V-16.0579H27.3807V-16.9292L24.7439 -16.9292V-16.0579L23.8594 -16.0579V-16.9292L21.2226 -16.9292V-16.0579L20.3333 -16.0579V-15.1889H19.4584V-16.0579L18.5786 -16.0579V-16.9292L15.9419 -16.9292V-16.0531L16.8216 -16.0531L16.8216 -15.1817L17.7037 -15.1817V-14.3128H18.5834V-13.4487H17.6941V-12.5773H16.812V-11.7084H15.9323L15.9323 -10.837H15.0597V-13.4415H15.9395V-14.3176H15.0597V-16.9292L13.2931 -16.9292L13.2931 84.8923H15.0597V82.2831H15.9395L15.9395 81.4094H15.0597L15.0597 78.805H15.9323V79.6739H16.812V80.5452H17.6941V81.4094H18.5738V82.2735H17.6941V83.1449H16.812V84.0138H15.9323V84.8899H18.569V84.021H19.4584V83.1497H20.3333V84.021H21.213V84.8899H23.8498V84.021H24.7247V84.8899H27.3615V84.021H28.2412V83.1497H29.1209V82.2807H30.0007V81.4094H30.8804V80.5405H31.7553V81.4094H32.635V82.2807H33.5148V83.1497H34.3969V84.021H35.2766V84.8899H37.9134V84.021H38.7859V84.8899H41.4227V84.021H42.3048V83.1497H43.1773V84.021H44.0571V84.8899H46.6938V84.0138H45.874V83.1449H44.9943V82.2735H44.1146V81.4094H44.9943V80.5405H45.874V79.6691H46.7538V78.8002H47.6287V81.4094H46.737V82.2855H47.6167V84.8947H49.3834L49.3833 -16.9244ZM24.7391 84.0162V83.1521H25.614V84.0162H24.7391ZM37.9349 -16.0435V-15.1794H37.0624V-16.0435L37.9349 -16.0435ZM39.7016 83.1521V82.2807H38.8219V81.4094H37.9421V80.5381H37.0624V79.6691H36.1803V78.7978H35.3006V77.9288H34.4209V77.0575H33.5411V76.1886H32.6614V75.3244H33.5411V74.4531H34.4209V73.5842H35.3006V72.7128H36.1803V71.8343H37.0552V72.7056H37.935V73.5818H38.8147L38.8147 74.4507H39.6944V75.322H40.5765L40.5765 76.191H41.4562V77.0551H40.5765V77.9265H39.7016V77.0551H38.8219V76.1862H37.9421V75.3148H37.0624V74.4435H36.1755V75.3148H35.2958V76.191H36.1755V77.0623H37.0552V77.9312H37.935V78.8026H38.8147V79.6715H39.6944V80.5429H40.5813V79.6715H41.461V78.8026H42.3432V77.9312H43.2229V77.0623H44.1026V76.191H44.9823V75.322H45.874V74.4507H46.7538V73.5818H47.6287V76.1862H46.737V77.0551H45.8573V77.9265H44.9751V78.7954H44.0954V79.6667H43.2157V80.5357H42.336V81.4094H41.4562V82.2783H40.5765V83.1497L39.7016 83.1521ZM22.0999 83.1521V82.2807H21.2202V81.4094H20.3405V80.5381H19.4584V79.6691H18.5786V78.7978H17.6989V77.9288H16.8192V77.0575H15.9395V76.1886L15.0597 76.1886V73.5818H15.9323V74.4507H16.812V75.322H17.6941V76.191H18.5738V77.0623H19.4536V77.9312H20.3333V78.8026H21.213V79.6715H22.0927V80.5429H22.9796V79.6715H23.8594V78.8026H24.7391V77.9312H25.6212V77.0623H26.5009V76.191H27.3807V75.3148H26.5009V74.4435H25.614V75.3148H24.7343V76.1862H23.8546V77.0551H22.9749V77.9265H22.0999V77.0551H21.2202V76.191H22.0999V75.322H22.9796V74.4507H23.8594V73.5818H24.7391V72.7104H25.6212V71.8343H26.4937V72.7056H27.3735V73.5818H28.2532V74.4507H29.1353V75.322H30.015V76.1862H29.1353V77.0551H28.2532V77.9265H27.3735V78.7954H26.4937V79.6667H25.614V80.5357H24.7343V81.4094H23.8546V82.2783H22.9749V83.1497L22.0999 83.1521ZM21.213 58.793H22.0927V59.6572H21.213V60.5261H20.3405V59.6572H19.4584V58.793H20.3405V57.9217H21.213V58.793ZM15.9395 52.7009V53.5722H16.8192V54.4412H17.7013V55.3173H18.581V56.1862H19.4608V57.0408H18.5738V57.9121H17.6989V57.0408H16.8192V56.1719H15.9395V55.3005H15.0597V52.6841L15.9395 52.7009ZM15.9395 57.9217V58.7882H16.8192V59.6524H15.9323V60.5213H15.0597L15.0597 57.9169L15.9395 57.9217ZM15.9395 62.2736H16.8192V61.4022H17.6989V60.5333H18.5738V61.3975H19.4536V62.2592H18.5738V63.1305H17.6941V63.9995H16.812V64.8708H15.9323V65.7398H15.0597V63.1353H15.9395V62.2736ZM15.9395 67.4944H16.8192V66.6231H17.6989V65.7541H18.5786V64.8828H19.4584L19.4584 64.0138H20.3405V63.1425H21.2202V62.2592H22.0999V61.3879H22.9796L22.9796 60.5189H23.8594V59.6476H24.7391V58.7715H23.8594V57.9025H22.9796V57.0312H22.0999V56.1623H21.2202V55.2909H20.3405V54.422H19.4584V53.5507H18.5786V52.6841H17.6989V51.8128H16.8192V50.9438H15.9395V50.0725H15.0597V47.4681H15.9395V46.5992H16.8192V45.7422H17.6989V44.8708H18.5738V45.7422H19.4536V46.6063H18.5738V47.4753H17.6941V48.3466H16.812V49.2227H17.6941V50.0941H18.5786V49.2227H19.4584V48.3538H20.3405V47.4825H21.213V48.3538H22.0927V49.2155H21.213V50.0869H20.3333V50.9582H19.4536V51.8343H20.3333V52.6841H21.2202V51.8152H22.0999V50.9438H22.9796V50.0749H23.8546V50.9438H24.7343V51.808H23.8546V52.6841H22.9749V53.5531H22.0927V54.4292H22.9749V55.3173H23.8594V54.4459H24.7391V53.577H25.6212V52.6841H26.4937V53.5555H27.3735V54.4316H26.4937V55.3005H25.614V56.1719H24.7343V57.048H25.614V57.9169H26.5009V57.048H27.3807V56.1766H28.2604V55.3173H29.1353V56.1862H30.015V57.0408H29.1353V57.9121H28.2532V58.7811H27.3735V59.6572H28.2532V60.5285H29.1401V59.6572H30.0198V58.7882H30.8996V57.9169H31.7817V57.048H32.6614V56.1766H33.5411V55.3173H34.4161V56.1862H35.2958V57.0575H36.1755V57.9265H37.0624V57.0575H37.9421V56.1814H37.0624V55.3101H36.1803V54.4412H35.3006V53.577H36.1803V52.6841H37.0552V53.5555H37.935V54.4244H38.8147V55.3173H39.7016V54.4459H40.5813V53.5698H39.7016V52.6841H38.8219V51.8128H37.9421V50.9486H38.8219V50.0797H39.6944V50.9486H40.5765V51.82H41.4562V52.6841H42.3432V51.8152H43.2229V50.9391H42.3432V50.0677H41.461V49.1964H40.5813V48.3346H41.461V47.4633H42.336V48.3346H43.2157V49.2036H44.0954V50.0749H44.9823V49.2036H45.874V48.3274H44.9943V47.4561H44.1146V46.5872H43.2349V45.7422H44.1146V44.8708H44.9871V45.7422H45.8692V46.6135H46.749V47.4825H47.6287V50.0797H46.737L46.737 50.951H45.8573V51.82H44.9751V52.6841H44.0954V53.5531H43.2157V54.4316H42.336V55.3005H41.4562V56.1718H40.5765V57.0408H39.6944V57.9121H38.8147V58.7811H37.935V59.6572H38.8147V60.5285H39.6944V61.3975H40.5765V62.2592H41.4562V63.1282H42.336V63.9995H43.2157V64.8684H44.0954V65.7398H44.9751V66.6087H45.8573V67.48H46.737V68.349H47.6167V70.963H46.737V71.8343H45.8573V72.7032H44.9751V73.5746H44.1026V72.7032H43.2229V71.8343H44.1026V70.9654H44.9823V70.094H45.874V69.2179H44.9943V68.349H44.1074V69.2179H43.2277V70.0892H42.348V70.9582H41.473V70.0892H40.5933V69.2251H41.473V68.3538H42.3551V67.4848H43.2349V66.6087H42.3551V65.7374H41.4682V66.6087H40.5765V67.4776H39.6944V68.349H38.8219V67.4776H37.9421V66.6135H38.8219V65.7445H39.7016V64.8732H40.5813V63.9971H39.7016V63.1282H38.8147V63.9971H37.935V64.8684H37.0552V65.7374H36.1803V64.8684H35.3006V64.0043H36.1803V63.1329H37.0624V62.2592H37.9421V61.3831H37.0624V60.5118H36.1755V61.3831H35.2958V62.2592H34.4161V63.1305H33.5411V62.2592H32.6614V61.3951H33.5411V60.5261H34.4209V59.6548H35.3006V58.7787H34.4209V57.9097H33.5339V58.7787H32.6542V59.65H31.7745V60.5189H30.8948V61.3903H30.015V62.2592H29.1353V63.1305H28.2604V62.2592H27.3807V61.3903H26.5009V60.5189H25.614V61.3903H24.7343V62.2592H25.614V63.1282H26.4937V63.9995H27.3735V64.8636H26.4937V65.7326H25.6212V64.8636H24.7391V63.9923H23.8594V63.1234H22.9749V63.9923H22.0927V64.8684H22.9749L22.9749 65.7398H23.8546V66.6087H24.7343V67.4728H23.8546V68.3442H22.9796V67.4728H22.0999V66.6039H21.2202V65.7326H20.3333V66.6039H19.4536L19.4536 67.48H20.3333V68.349H21.213V69.2203H22.0927V70.0845H21.213V70.9534H20.3405V70.0845H19.4584V69.2131H18.5786V68.3442H17.6941V69.2131H16.812V70.0892H17.6941V70.9606H18.5738V71.8343H19.4536V72.6985H18.5738V73.5698H17.6989V72.6985H16.8192V71.8343H15.9395L15.9395 70.963H15.0597L15.0597 68.3586H15.9395V67.4944ZM15.9395 36.1623H15.0597V31.8176H15.9395V30.9415H15.0597V28.337H15.9323V29.2012H16.812V30.0725H17.6941V30.9415H18.5738V31.8056H17.6941V32.677H16.812V33.5339H15.9323V34.41H16.812V35.2814H17.6941V36.1671H18.5738V37.0312H17.6941V37.9026H16.812V38.7715H15.9323V39.6381H15.0597V37.0336H15.9395V36.1623ZM21.213 8.32271H22.0927V9.18686H21.213V10.051H20.3405V9.18208L19.4584 9.18209V8.31792H20.3405V7.44181H21.213V8.32271ZM15.9395 2.23056V3.10189H16.8192V3.97083H17.7013V4.84217H18.581V5.71111H19.4607V6.57526H18.5738V7.44181H17.6989V6.57047H16.8192V5.70153H15.9395L15.9395 4.83021H15.0597L15.0597 2.22578L15.9395 2.23056ZM15.9395 7.45138V8.32271H16.8192L16.8192 9.18686H15.9323V10.051H15.0597V7.44181L15.9395 7.45138ZM15.9395 11.8033H16.8192V10.9319H17.6989L17.6989 10.063H18.5738V10.9319H19.4536V11.7961H18.5738V12.6674H17.6941L17.6941 13.5364H16.812V14.4077H15.9323V15.2766H15.0597L15.0597 12.6722H15.9395V11.8033ZM15.9395 17.0241H16.8192V16.1528H17.6989V15.2838H18.5786V14.4125L19.4584 14.4125V13.5435H20.3405V12.6722H21.2202V11.8033H22.0999V10.9319H22.9796V10.063H23.8594V9.19165H24.7391V8.31554H23.8594V7.44181H22.9796V6.57047H22.0999V5.70153H21.2202V4.83021H20.3405V3.96127H19.4584V3.08993H18.5786V2.22099H17.6989V1.34965H16.8192V0.480709H15.9395V-0.390612H15.0597V-2.99504H15.9395V-3.86398H16.8192V-4.73532H17.6989V-5.60665H18.5738V-4.73532L19.4536 -4.73532V-3.87117H18.5738V-2.99983H17.6941V-2.13329H16.812V-1.25717H17.6941V-0.385836H18.5786V-1.25717H19.4584V-2.13329H20.3405V-3.00462H21.213V-2.13329H22.0927L22.0927 -1.26914H21.213V-0.400198H20.3333V0.47114H19.4536V1.34725H20.3333V2.2162H21.2202V1.34725H22.0999V0.475931H22.9796V-0.393009H23.8546V0.475931H24.7343V1.34008H23.8546L23.8546 2.21142H22.9748V3.08036H22.0927V3.95647H22.9748V4.82781H23.8594V3.95647H24.7391V3.08753H25.6212L25.6212 2.21619H26.4937V3.08753H27.3735V3.95168H26.4937V4.82062H25.614V5.69196H24.7343V6.56807H25.614L25.614 7.44181H26.5009V6.57286H27.3807V5.70153H28.2604V4.83259H29.1353V5.70153H30.015V6.56569H29.1353V7.44181H28.2532V8.31075H27.3735V9.18686H28.2532V10.0582H29.1401V9.18686H30.0198V8.31792H30.8996V7.4418H31.7817L31.7817 6.57286H32.6614V5.70153H33.5411V4.83259H34.4161V5.70153H35.2958V6.57286H36.1755V7.4418H37.0624V6.57286H37.9421V5.69675H37.0624V4.82541H36.1803V3.95647H35.3006V3.09232H36.1803V2.22099H37.0552V3.09232H37.9349V3.96126H38.8147V4.83259H39.7016V3.96126H40.5813V3.08513H39.7016V2.21619H38.8219V1.34487H37.9421V0.480709H38.8219V-0.388231H39.6944V0.480709H40.5765V1.35205H41.4562V2.22099H42.3432V1.35205H43.2229V0.475931H42.3432V-0.395407L41.461 -0.395405V-1.26435H40.5813V-2.13329H41.461V-3.00462H42.336V-2.13329H43.2157V-1.26435H44.0954V-0.393009H44.9823V-1.26435H45.874V-2.13329H44.9943V-3.00223H44.1146V-3.87357H43.2349V-4.73771H44.1146V-5.60905H44.9871L44.9871 -4.73771H45.8692V-3.86638H46.749V-2.99504H47.6287V-0.390614H46.737V0.480709H45.8573V1.34965H44.9751L44.9751 2.22099H44.0954V3.08993H43.2157V3.96126H42.336V4.83021H41.4562V5.70153L40.5765 5.70153V6.57047H39.6944V7.4418H38.8147V8.31075H37.935V9.18686H38.8147V10.0582H39.6944L39.6944 10.9271H40.5765V11.7985H41.4562V12.6674H42.336V13.5387H43.2157V14.4077H44.0954V15.279H44.9751V16.148H45.8573V17.0169H46.737V17.8858H47.6167V20.4927H46.737V21.364H45.8573V22.2353H44.9751V23.1043H44.1026V22.2353H43.2229V21.3688H44.1026V20.4998H44.9823V19.6285H45.874V18.7524H44.9943V17.8834H44.1074V18.7524H43.2277V19.6237H42.3479V20.4927H41.473V19.6237H40.5933V18.7596H41.473V17.8882L42.3551 17.8882V17.0169H43.2349V16.1408H42.3551V15.2694H41.4682V16.1408H40.5765V17.0169H39.6944V17.8882H38.8219V17.0169H37.9421V16.1527H38.8219V15.2838H39.7016V14.4125H40.5813V13.5364H39.7016V12.6674H38.8147V13.5364H37.935V14.4077H37.0552V15.2766H36.1803V14.4077H35.3006V13.5435H36.1803V12.6722H37.0624V11.8033H37.9421V10.9271H37.0624V10.0558H36.1755V10.9271H35.2958V11.7961H34.4161V12.6674H33.5411V11.7961H32.6614V10.9319H33.5411V10.063H34.4208V9.19165L35.3006 9.19165V8.31554H34.4208V7.4418H33.5339V8.31075H32.6542V9.18208H31.7745V10.051L30.8948 10.051V10.9223H30.015V11.7913H29.1353V12.6626H28.2604V11.7913H27.3807V10.9223H26.5009V10.051H25.614V10.9223H24.7343V11.7985L25.614 11.7985V12.6674H26.4937V13.5387H27.3735V14.4029H26.4937V15.2718H25.6212V14.4029H24.7391V13.5316H23.8594V12.6626H22.9748V13.5316H22.0927V14.4077H22.9748V15.279H23.8546V16.148H24.7343V17.0169H23.8546V17.8882H22.9796L22.9796 17.0169H22.0999V16.148H21.2202V15.2766H20.3333V16.148H19.4536V17.0169H20.3333V17.8858H21.213L21.213 18.7572H22.0927V19.6213H21.213V20.4903H20.3405V19.6213H19.4584V18.75H18.5786V17.881H17.6941V18.75H16.812V19.6261H17.6941V20.4974H18.5738V21.3664H19.4536V22.2353H18.5738V23.1043H17.6989V22.2353H16.8192V21.364H15.9395V20.4927H15.0597V17.8882H15.9395V17.0241ZM15.9395 -9.08242H16.8192V-9.95134H17.6989V-10.8227H18.5786V-11.7084H19.4584V-12.5797H20.3405V-13.4487H21.2202V-14.32H22.0999V-15.1889H22.9748V-14.32H23.8546V-13.4487H24.7343V-12.5797H25.614V-11.7084H26.4937V-10.8394H27.3735V-9.9681H28.2532V-9.09916H29.1353V-8.22784H30.015V-7.35171H29.1353V-6.48277H28.2532V-5.61145H27.3735V-4.74011H26.4937V-3.87117H25.6212V-4.74011H24.7391V-5.61145H23.8594V-6.48277H22.9796V-7.35171H22.0999V-8.22305H21.2202L21.2202 -9.08719H22.0999V-9.95614H22.9748V-9.08719H23.8546V-8.21586H24.7343V-7.34693H25.614V-6.47559H26.5009V-7.34693H27.3807V-8.22305H26.5009V-9.09199H25.6212V-9.96332H24.7391V-10.8323H23.8594V-11.7084H22.9796V-12.5773H22.0927V-11.7084H21.213V-10.837H20.3333V-9.9681H19.4536V-9.09678L18.5738 -9.09678V-8.22784H17.6941V-7.35171H16.812V-6.48277H15.9323V-5.61145H15.0597L15.0597 -8.21586H15.9395V-9.08242ZM40.5765 -15.177V-14.308H41.4562V-13.4367H42.336V-12.5678H43.2157V-11.7084H44.0954V-10.8394H44.9751V-9.9681H45.8573V-9.09916H46.737V-8.22784H47.6167V-5.61145H46.7418V-6.48277H45.874V-7.35171H44.9943V-8.22305H44.1146V-9.09199H43.2349V-9.96333H42.3551V-10.8323H41.473V-11.7084H40.5933V-12.5773H39.7064V-11.7084H38.8267V-10.837H37.9469V-9.9681H37.0672V-9.09678H36.1875V-8.22784L35.3078 -8.22784V-7.35171L36.1875 -7.35171V-6.48037L37.0744 -6.48037V-7.35171H37.9541V-8.22065H38.8339V-9.09199H39.7136V-9.96093H40.5885V-9.09199L41.4682 -9.09199V-8.22784H40.5765V-7.35171H39.6944V-6.48277H38.8147V-5.61145H37.9349V-4.74011H37.0552V-3.87117H36.1803V-4.74011H35.3006V-5.61145H34.4208V-6.48277H33.5411V-7.35171H32.6614V-8.21586H33.5411V-9.0872H34.4208V-9.95614H35.3006V-10.8275H36.1803V-11.7084H37.0624V-12.5797H37.9421V-13.4487L38.8219 -13.4487V-14.32L39.7016 -14.32V-15.1889L40.5765 -15.177ZM36.1755 -14.308V-13.4439H35.3006V-14.308H36.1755ZM31.7745 -9.95614V-9.09199H30.8996V-9.95614H31.7745ZM20.3405 -6.47559H21.213V-5.61145H20.3405V-6.47559ZM22.0927 -4.74011H21.2202V-5.60665H22.0927V-4.74011ZM22.0927 -4.74011H22.9677V-3.87596H22.0999L22.0927 -4.74011ZM22.9725 -3.86877H23.8474V-3.00462H22.9796L22.9725 -3.86877ZM29.1329 3.08514V2.22099H30.0078V3.08514H29.1329ZM26.4961 0.475931V-0.388231H27.3687V0.475931H26.4961ZM36.1755 -2.13329V-1.26914H35.3006V-2.13329H36.1755ZM35.3006 0.47114V-0.393009H36.1755V0.47114H35.3006ZM32.6638 3.08036V2.21619H33.5363V3.08036H32.6638ZM30.027 -0.400198H29.1401V-1.26435H30.0198V-2.13329L30.8996 -2.13329V-3.00462H31.7745V-2.13329H32.6542V-1.26435H33.5339V-0.400198H32.6542V0.47114H31.7745V1.34008H30.8996V0.47114H30.0198L30.027 -0.400198ZM26.5009 -2.13329H27.3735V-1.26914H26.5009V-2.13329ZM38.8147 -3.00462V-2.13329H37.9421V-2.99744L38.8147 -3.00462ZM30.9044 -5.61622V-4.74968H30.0198V-5.61622H30.9044ZM30.0246 -4.74489V-3.88074H29.1401V-4.74489H30.0246ZM29.1449 -3.87356V-3.0094H28.2604V-3.87356H29.1449ZM28.2628 -3.00462V-2.13329H27.3807V-2.99744L28.2628 -3.00462ZM31.7913 3.95168V3.08753H32.6638V3.95168H31.7913ZM33.5507 2.21142V1.34725H34.4256V2.21142H33.5507ZM34.4304 1.34008V0.475931H35.3054V1.34008H34.4304ZM36.1899 -0.400198V-1.26435H37.0648V-0.400198H36.1899ZM37.072 -1.26914V-2.13329H37.9445V-1.26914H37.072ZM38.8315 -3.0094V-3.87356H39.704V-3.0094H38.8315ZM39.7112 -3.88074V-4.74489H40.5861V-3.88074H39.7112ZM41.4658 -5.61622V-4.74968H40.5909V-5.61622H41.4658ZM41.4658 -5.61622V-6.48037H42.3408V-5.61622H41.4658ZM35.2958 -2.13329H34.4208V-2.99744H35.2958V-2.13329ZM34.4161 -3.00223H33.5411V-3.86638H34.4161V-3.00223ZM33.5339 -3.87356H32.6614V-4.73771H33.5339V-3.87356ZM32.6542 -4.74251H31.7817V-5.60905H32.6542V-4.74251ZM31.7745 -5.61383H30.8996V-6.47799H31.7745V-5.61383ZM24.7343 -2.13329H23.8594V-2.99744H24.7343V-2.13329ZM24.7343 -2.13329H25.6092V-1.26914H24.7391L24.7343 -2.13329ZM25.6164 -1.26435H26.4889V-0.400198H25.6212L25.6164 -1.26435ZM27.3759 0.475931H28.2484V1.34008H27.3807L27.3759 0.475931ZM28.2556 1.34725H29.1305V2.21142H28.2604L28.2556 1.34725ZM30.015 3.08753H30.89V3.95168H30.0198L30.015 3.08753ZM30.8948 3.95647H31.7697V4.82062H30.8996L30.8948 3.95647ZM43.2109 -6.49235H42.3384V-7.3565H43.2109V-6.49235ZM20.3285 -7.3565V-6.49235H19.4584V-7.3565H20.3285ZM44.0906 -7.3565H43.2181V-8.22065H44.0906V-7.3565ZM32.6494 -10.8323V-9.9681H31.7769V-10.8323H32.6494ZM30.89 -9.9681H30.0198V-10.8323H30.8948L30.89 -9.9681ZM19.4488 -8.22065V-7.35171H18.5786V-8.21586L19.4488 -8.22065ZM35.291 -13.4415V-12.5773H34.4161V-13.4415H35.291ZM34.4113 -12.5725V-11.7084H33.5363V-12.5725H34.4113ZM33.5339 -11.7084V-10.8442H32.6614V-11.7084H33.5339ZM29.1401 -10.8442V-11.7084H30.015V-10.8442H29.1401ZM28.2604 -11.7084V-12.5725H29.1353V-11.7084H28.2604ZM27.3807 -12.5773V-13.4415L28.2532 -13.4415V-12.5773H27.3807ZM26.5009 -13.4487V-14.3128L27.3735 -14.3128V-13.4487L26.5009 -13.4487ZM41.461 9.17729H40.5813V8.31314H41.461V7.4418H42.336V8.31314H43.2157V9.17729H42.336V10.051H41.461L41.461 9.17729ZM46.7346 15.2671V14.3981H45.874V13.5268H44.9943V12.6578H44.1146V11.7865H43.2349V10.9223H44.1146L44.1146 10.0534H44.9871V10.9223H45.8692V11.7985H46.749V12.6674H47.6287V15.2718L46.7346 15.2671ZM46.7346 10.0462V9.17729H45.874V8.31314H46.7538V7.4418H47.6287V10.051L46.7346 10.0462ZM46.7346 5.69675H45.8549V6.56569H44.9727V7.4418H44.1002V6.57047H43.2205V5.70632H44.1002V4.83738H44.9799V3.96604H45.874V3.0971H46.7538V2.22578H47.6287V4.8302L46.737 4.83021L46.7346 5.69675ZM46.7346 31.808H47.6143V36.1671H46.737V37.0432H47.6167V39.6381H46.7418V38.7667H45.874V37.8978H44.9943V37.0265H44.1146V36.1671H44.9943V35.2981H45.874V34.4268H46.7538V33.5339H45.874V32.665H44.9943V31.7937H44.1146V30.9295H44.9943V30.0606H45.874V29.1892H46.7538V28.3203H47.6287V30.9367H46.737L46.7346 31.808ZM20.3405 43.9947H21.213V44.8589H20.3405V43.9947ZM22.0927 45.7278H21.2202V44.8637H22.0927V45.7278ZM22.0927 45.7278H22.9677V46.592H22.0999L22.0927 45.7278ZM22.9725 46.5992H23.8474V47.4609H22.9796L22.9725 46.5992ZM19.4584 34.4172H18.5786V33.5531H19.4584V32.6818H20.3333V33.5531H21.213V34.4172H20.3333V35.2862H19.4584V34.4172ZM42.336 23.9756H41.461V23.1115H42.336V23.9756ZM40.5813 22.2401H41.4562V23.1043H40.5813V22.2401ZM40.5813 22.2401H39.7064V21.3736H40.5813V22.2401ZM39.6992 21.3688H38.8267V20.5046H39.6992V21.3688ZM43.2205 33.5579H44.1002V34.422H43.2205V35.291H42.3479V34.422H41.4658V33.5579H42.3479V32.6865H43.2205V33.5579ZM29.1401 53.5602V52.6841H30.015V53.5483L29.1401 53.5602ZM26.5033 50.951V50.0869H27.3759V50.951H26.5033ZM36.1779 48.3466V49.2084H35.303V48.3466H36.1779ZM35.303 50.951V50.0869H36.1779V50.951H35.303ZM32.6662 53.5602V52.6841H33.5387V53.5483L32.6662 53.5602ZM30.0294 50.0797H29.1401V49.2155H30.0198V48.3466H30.8996V47.4753H31.7745V48.3466H32.6542V49.2155H33.5339V50.0797H32.6542V50.951H31.7745V51.82H30.8996V50.951H30.0198L30.0294 50.0797ZM26.5105 48.3466H27.3831V49.2084H26.5009L26.5105 48.3466ZM38.8243 47.4753V48.3394H37.9517V47.4753H38.8243ZM30.9139 44.8637V45.7278H30.0198V44.8637H30.9139ZM30.015 45.7422V46.6063H29.1401V45.7422H30.015ZM29.1353 46.6135V47.4753H28.2604V46.6135H29.1353ZM28.2532 47.4825V48.3466H27.3807V47.4825H28.2532ZM31.7817 54.4316V53.5674H32.6542V54.4316H31.7817ZM33.5411 52.6913V51.8271H34.4161V52.6841L33.5411 52.6913ZM34.4209 51.82V50.9558H35.2958V51.82H34.4209ZM36.1803 50.0797V49.2155H37.0552V50.0797H36.1803ZM37.0624 49.2084V48.3466H37.935V49.2084H37.0624ZM38.8219 47.4681V46.6063H39.6944V47.4681H38.8219ZM39.7016 46.5992V45.7422H40.5765V46.6063L39.7016 46.5992ZM41.4562 44.8637V45.7278H40.5813V44.8637H41.4562ZM41.4562 44.8637V43.9995H42.3312V44.8637H41.4562ZM35.291 48.3442H34.4161V47.4801H35.291V48.3442ZM34.4113 47.4729H33.5363V46.6111H34.4113V47.4729ZM33.5291 46.6039H32.6566V45.7422H33.5291V46.6039ZM32.6494 45.7326H31.7769V44.8684H32.6494V45.7326ZM31.7697 44.8637H30.8996V43.9995H31.7745L31.7697 44.8637ZM31.7697 40.5118V39.6476H32.6422V40.5118H31.7697ZM30.8876 37.0312L30.0198 37.0312V36.1671H29.1401V35.2957H28.2604V34.4268H27.3807V33.5627H28.2604V32.6913H29.1401V31.8224H30.0198V30.9511H30.8996V30.0821H31.7745V30.9511H32.6542V31.8224H33.5339V32.6913H34.4161V33.5627H35.2958V34.4268H34.4161V35.2957H33.5339V36.1671H32.6542V37.036H31.7745V37.9074L30.8996 37.9074L30.8876 37.0312ZM32.6494 39.6428L32.6494 38.7787H33.5219V39.6381L32.6494 39.6428ZM33.5291 38.7715V37.9074H34.4041V38.7715H33.5291ZM34.4089 37.9026V37.0384H35.2838V37.9026H34.4089ZM35.2886 37.0312V36.1671H36.1635V37.0312H35.2886ZM36.1683 36.1623V35.2981H37.0432V36.1671L36.1683 36.1623ZM37.0504 35.291V34.4268H37.923V35.291H37.0504ZM30.8828 27.4657V28.3299H30.0198V27.4657H30.8828ZM30.0031 28.337V29.2012H29.1401V28.337H30.0031ZM29.1233 29.206V30.0702H28.2604V29.206H29.1233ZM28.2412 30.0773V30.9415H27.3807V30.0773H28.2412ZM27.3615 30.9463V31.8104H26.5009V30.9463H27.3615ZM26.4818 31.8176V32.6818H25.6212V31.8176H26.4818ZM25.602 32.6865V33.5339H24.7391V32.6698L25.602 32.6865ZM38.8027 34.422H37.9302V33.5579H38.8027V34.422ZM37.923 33.5507H37.0504V32.6865H37.923V33.5507ZM37.0432 32.6818H36.1683V31.8176H37.0432V32.6818ZM36.1635 31.8104H35.2886V30.9463H36.1635V31.8104ZM35.2838 30.9415H34.4089V30.0773H35.2838V30.9415ZM34.4041 30.0702H33.5291V29.206H34.4041V30.0702ZM33.5219 29.2012H32.6494V28.337H33.5219V29.2012ZM32.6422 28.3299H31.7697V27.4657H32.6422V28.3299ZM31.7625 27.4609H30.8996V26.592H31.7745L31.7625 27.4609ZM20.3285 23.9804V23.1162H21.201V23.9804H20.3285ZM21.2082 23.1091V22.2449H22.0807V23.1091H21.2082ZM22.0879 22.2401V21.3736H22.9629V22.2353L22.0879 22.2401ZM22.9677 21.3688V20.5046H23.8426V21.3688H22.9677ZM31.7697 23.1091V22.2449H32.6422V23.1091H31.7697ZM33.5219 14.4125V15.2766H32.6494V14.4125H33.5219ZM36.1587 17.0241V17.8882H35.2838V17.0169L36.1587 17.0241ZM27.3567 17.0241V17.8882H26.5009V17.0169L27.3567 17.0241ZM29.9935 14.4125V15.2766L29.1401 15.2766V14.4125H29.9935ZM30.878 19.6285H30.0198V18.7572H29.1401V17.893H30.0198V17.0169H30.8996V16.1456H31.7745V17.0169H32.6542V17.8858H33.5339V18.75H32.6542V19.6213H31.7745V20.4903H30.8996L30.878 19.6285ZM36.1515 19.6285H35.2766V18.7644H36.1515V19.6285ZM26.477 19.6285V18.7644H27.3495V19.6285H26.477ZM32.6374 22.2401V21.3736H33.51V22.2353L32.6374 22.2401ZM33.5172 21.3688V20.5046H34.3921V21.3688H33.5172ZM34.3969 20.4974V19.6333H35.2718V20.4974H34.3969ZM30.8708 13.5555V14.4197H30.0198V13.5555H30.8708ZM29.1113 15.2958V16.1599H28.2604V15.2958H29.1113ZM28.2292 16.1647V17.0169H27.3807V16.1528L28.2292 16.1647ZM26.4698 17.905V18.7691H25.6212V17.905H26.4698ZM25.59 18.7763V19.6405H24.7391V18.7763H25.59ZM23.8354 20.5094V19.6453H24.7103V20.5094H23.8354ZM37.9182 19.6453H38.7907V20.5094H37.9182V19.6453ZM37.9182 19.6453H37.0456V18.7811H37.9182V19.6453ZM37.0384 18.7739H36.1635V17.9098H37.0384V18.7739ZM35.279 17.0337H34.4041V16.1695L35.279 16.1695V17.0337ZM34.3993 16.1647H33.5243V15.3006H34.3993V16.1647ZM32.6374 14.4244H31.7649V13.5603H32.6374V14.4244ZM31.7577 13.5531H30.8996V12.689H31.7745L31.7577 13.5531ZM27.3807 19.6285H28.2532V20.4927H27.3807V19.6285ZM28.2604 20.4998H29.1353V21.364H28.2604V20.4998ZM29.1401 21.3688H30.015V22.2353H29.1401V21.3688ZM30.0198 22.2401H30.8948V23.1043H30.0198V22.2401ZM30.8996 23.1115H31.7745V23.9756H30.8996V23.1115ZM23.8594 33.5531H24.7343V34.4172H23.8594V33.5531ZM24.7391 34.422H25.614V35.2862H24.7391V34.422ZM25.6212 35.2934H26.4937V36.1671H25.6212V35.2934ZM26.5009 36.1671H27.3735V37.0312H26.5009V36.1671ZM27.3807 37.0384H28.2532V37.9026H27.3807V37.0384ZM28.2604 37.9074H29.1353V38.7715H28.2604V37.9074ZM29.1401 38.7787H30.015V39.6381H29.1401V38.7787ZM30.0198 39.6476H30.8948V40.5118H30.0198V39.6476ZM30.8996 40.519H31.7745V41.3831H30.8996V40.519ZM24.7343 48.3394H23.8594V47.4753H24.7343V48.3394ZM24.7343 48.3394H25.6092V49.2012H24.7391L24.7343 48.3394ZM25.6164 49.2084H26.489V50.0725H25.6212L25.6164 49.2084ZM27.3759 50.9486H28.2484V51.8128H27.3807L27.3759 50.9486ZM28.2556 51.82H29.1305V52.6841H28.2604L28.2556 51.82ZM30.015 53.5602H30.89V54.4316H30.0198L30.015 53.5602ZM30.8948 54.4292H31.7697V55.2933H30.8996L30.8948 54.4292ZM43.2109 43.9804H42.3384V43.1162H43.2109L43.2109 43.9804ZM42.3384 24.8302V23.966H43.2109V24.8445L42.3384 24.8302ZM19.4536 23.966H20.3285V24.8445H19.4584L19.4536 23.966ZM20.3285 43.1162V43.9804H19.4584V43.1162H20.3285ZM44.0906 43.1162H43.2181V42.2521H44.0906V43.1162ZM43.2181 25.7135V24.8493H44.0906V25.7135H43.2181ZM18.5738 24.8493H19.4488V25.7135H18.5786L18.5738 24.8493ZM19.4488 42.2521V43.109H18.5786V42.2449L19.4488 42.2521ZM46.7418 44.8589L46.7418 43.9875H45.874V43.109H44.9943V42.2377H44.1146V41.3687H43.2349V40.4974H42.3551V39.6285H41.473V38.7571H40.5933V37.8882H39.7064V38.7571H38.8267V39.6381H37.9469L37.9469 40.507H37.0672V41.3783H36.1875V42.2473H35.3078V43.1234H36.1875V43.9947H37.0744V43.1234H37.9541V42.2544H38.8339V41.3831H39.7136V40.5142H40.5885V41.3831H41.4682V42.2473H40.5765V43.109H39.6944V43.978H38.8147V44.8493H37.935V45.7182H37.0552V46.5896L36.1803 46.5896V45.7182H35.3006V44.8493H34.4209V43.978H33.5411V43.109H32.6614V42.2449H33.5411V41.3735H34.4209V40.5046H35.3006V39.6333H36.1803V38.7643H37.0624V37.893L37.9421 37.893V37.0241H38.8219V36.1671H39.7016V35.2981H40.5765V36.1671H41.4562V37.0384H42.336V37.9074H43.2157V38.7787H44.0954V39.6476H44.9751V40.519H45.8573V41.3879H46.737V42.2592H47.6167V44.8589L46.7418 44.8589ZM46.7418 26.5848H45.8621V27.4561H44.9799V28.3251H44.1002V29.1964H43.2205V30.0654H42.3408V30.9367H41.461V31.8056H40.5765V32.677H39.7016V31.8056H38.8219V30.9367H37.9421V30.0654H37.0624V29.1964H36.1803V28.3251H35.3006V27.4561H34.4208V26.592H33.5411V25.723H32.6614V24.8589H33.5411V23.9876H34.4208V23.1186H35.3006V22.2473H36.1803V21.376H37.0552V22.2473H37.935V23.1186H38.8147V23.9876H39.6944V24.8589H40.5765V25.7278L41.4562 25.7278V26.592H40.5765V27.4633H39.7016V26.592H38.8219V25.723H37.9421V24.8517H37.0624V23.9828H36.1755V24.8445H35.2958V25.7207H36.1755V26.592H37.0552V27.4609H37.935V28.3323H38.8147V29.2012H39.6944V30.0725H40.5813L40.5813 29.2012H41.461V28.3323H42.3432V27.4609H43.2229V26.592H44.1026V25.7207H44.9823V24.8517H45.874V23.9804H46.7538V23.1115H47.6287L47.6287 25.7159H46.737L46.7418 26.5848ZM15.9323 23.1115V23.9804H16.812V24.8517H17.6941V25.7207H18.5738V26.592H19.4536V27.4609H20.3333V28.3323H21.213V29.2012H22.0927V30.0725H22.9796V29.2012H23.8594V28.3323H24.7391V27.4609H25.6212V26.592H26.5009V25.7207H27.3807V24.8445H26.5009V23.9756H25.614V24.8445H24.7343L24.7343 25.7159H23.8546V26.592H22.9749V27.4633H22.0999V26.592H21.2202V25.7278H22.0999V24.8589H22.9796V23.9876H23.8594V23.1186H24.7391V22.2473H25.6212V21.376H26.4937V22.2473H27.3735L27.3735 23.1186H28.2532V23.9876H29.1353V24.8589H30.015V25.723H29.1353V26.592H28.2532V27.4633H27.3735V28.3323H26.4937V29.2036H25.614L25.614 30.0725H24.7343V30.9439H23.8546V31.8128H22.9749V32.6841H22.0999V31.8128H21.2202V30.9439H20.3405V30.0725H19.4584V29.2036H18.5786V28.3323H17.6989V27.4633H16.8192V26.592H15.9395V25.7231H15.0597L15.0597 23.1186L15.9323 23.1115ZM15.9323 41.3831H16.812V40.5142H17.6917V39.6428H18.5714V38.7739H19.4584V37.9026H20.3405V37.0336H21.2202V36.1671H22.0999V35.2981H22.9749V36.1671H23.8546V37.0384H24.7343V37.9074H25.614V38.7787H26.4937V39.6476H27.3735V40.519H28.2532V41.3879H29.1353V42.2592H30.015V43.109H29.1353V43.978H28.2532V44.8493H27.3735V45.7182H26.4937V46.5896H25.6212L25.6212 45.7182H24.7391L24.7391 44.8493H23.8594V43.978H22.9796V43.109H22.0999V42.2377H21.2202V41.3735H22.0999V40.5046H22.9749V41.3735H23.8546V42.2449H24.7343V43.1138H25.614V43.9947H26.5009V43.1234H27.3807V42.2473H26.5009V41.3783H25.6212V40.507H24.7391V39.6381H23.8594V38.7667H22.9796V37.8978H22.0927V38.7667H21.213V39.6381H20.3333V40.507H19.4536V41.3783H18.5738V42.2473H17.6941V43.109H16.812V43.978H15.9323V44.8493H15.0597V42.2449H15.9395L15.9323 41.3831ZM41.461 59.6524H40.5813V58.7882H41.461V57.9169H42.336V58.7882H43.2157V59.6524H42.336V60.5213H41.461V59.6524ZM46.7346 65.7421V64.8732H45.874V64.0019H44.9943V63.1329H44.1146V62.2592H43.2349V61.3951H44.1146V60.5261H44.9871V61.3975H45.8692V62.2592H46.749V63.1282H47.6287V65.7421H46.7346ZM46.7346 60.5213V59.6524H45.874V58.7882H46.7538V57.9169H47.6287V60.5213H46.7346ZM46.7346 56.1718H45.8549V57.0408H44.9727V57.9121H44.1002V57.0408H43.2205V56.1766H44.1002V55.3173H44.9799V54.4459H45.874V53.577H46.7538V52.6841H47.6287V55.3005H46.737L46.7346 56.1718ZM26.4985 82.264L26.4985 81.4094H27.3711V82.2735L26.4985 82.264ZM30.8972 77.9145V77.0503H31.7721V77.9145H30.8972ZM20.3405 74.4435V73.5818H21.213V74.4435H20.3405ZM21.2202 73.5746V72.7104H22.0927V73.5746H21.2202ZM22.0999 72.7032V71.8343H22.9749V72.6985L22.0999 72.7032ZM22.9796 71.8343V70.9702H23.8546V71.8343H22.9796ZM33.5267 64.878V65.7421H32.6542V64.878H33.5267ZM36.1635 67.4896V68.3538H35.2886V67.4896H36.1635ZM36.1635 70.094H35.2886V69.2299H36.1635V70.094ZM27.3615 67.4896V68.3538H26.5009V67.4896H27.3615ZM29.9983 64.878V65.7421H29.1401V64.878H29.9983ZM30.8828 70.094H30.0198V69.2227H29.1401V68.3586H30.0198V67.4896H30.8996V66.6183H31.7745V67.4896H32.6542V68.3586H33.5339V69.2227H32.6542V70.094H31.7745V70.963H30.8996L30.8828 70.094ZM26.4842 70.094V69.2299H27.3567V70.094H26.4842ZM30.878 64.0091V64.8732H30.0198V64.0091H30.878ZM29.1185 65.7493V66.6135H28.2604V65.7493H29.1185ZM28.2364 66.6183V67.4824H27.3807V66.6183H28.2364ZM26.477 68.3586V69.2227H25.6212V68.3586H26.477ZM25.5972 69.2299V70.094H24.7391V69.2299H25.5972ZM23.8426 70.963V70.0988H24.7175V70.963H23.8426ZM31.7649 73.5746V72.7104H32.6374V73.5746H31.7649ZM32.6446 72.7032V71.8343H33.5172V72.6985L32.6446 72.7032ZM33.5243 71.8343V70.9702H34.3993V71.8343H33.5243ZM34.4041 70.963V70.0988H35.279V70.963H34.4041ZM37.9182 70.094H37.0456V69.2299H37.9182V70.094ZM37.0384 69.2227H36.1635V68.3586H37.0384V69.2227ZM35.279 67.4824H34.4041V66.6183H35.279V67.4824ZM34.3993 66.6135H33.5243V65.7493H34.3993V66.6135ZM32.6374 64.8732H31.7649V64.0091H32.6374V64.8732ZM31.7577 64.0019H30.8996V63.1377H31.7745L31.7577 64.0019ZM27.3807 70.0988H28.2532V70.963H27.3807V70.0988ZM28.2604 70.9702H29.1353V71.8343H28.2604V70.9702ZM29.1401 71.8343H30.015V72.6985H29.1401V71.8343ZM30.0198 72.7056H30.8948V73.5698H30.0198V72.7056ZM30.8996 73.577H31.7745V74.4387H30.8996V73.577ZM37.9421 70.094H38.8147V70.9582H37.9421V70.094ZM38.8219 70.9654H39.6944V71.8343H38.8219V70.9654ZM39.7016 71.8343H40.5765V72.6985H39.7016V71.8343ZM40.5813 72.7056H41.4562V73.5698H40.5813L40.5813 72.7056ZM41.461 73.577H42.336V74.4387H41.461V73.577ZM19.4584 74.4507H20.3333V75.3148H19.4584V74.4507ZM42.3432 75.3148V74.4507H43.2157V75.3148H42.3432ZM18.5786 75.3148H19.4536V76.179H18.5786V75.3148ZM30.0198 78.7954V77.9312H30.8948V78.7954H30.0198ZM31.7817 77.9312H32.6542V78.7954H31.7817V77.9312ZM43.2229 76.1862V75.322H44.0954V76.1862H43.2229ZM27.3807 81.4094V80.5452H28.2532V81.4094H27.3807ZM28.2604 80.5381V79.6739H29.1353V80.5381H28.2604ZM29.1401 79.6691V78.805H30.015V79.6691H29.1401ZM33.5339 78.805V79.6691H32.6614V78.805H33.5339ZM34.4161 79.6739V80.5381H33.5411V79.6739H34.4161ZM35.2958 80.5452V81.4094H34.4209V80.5452H35.2958ZM36.1755 81.4094V82.2735H35.3006V81.4094H36.1755ZM37.0552 -14.3152H36.1803V-15.1794L37.0552 -15.1794V-14.3152ZM26.4937 -15.1794V-14.3152H25.6212V-15.1794L26.4937 -15.1794ZM25.6212 82.2831H26.4937V83.1473H25.6212V82.2831ZM36.1803 83.1473V82.2831H37.0552V83.1473H36.1803ZM25.614 -16.0483V-15.1841L24.7391 -15.1841V-16.0483L25.614 -16.0483ZM37.0624 84.0114V83.1473H37.935V84.0114H37.0624Z" fill="url(#paint3_linear_5_606)"/>
<path d="M52.9072 -16.9236L51.1406 -16.9236L51.1406 84.8931H52.9072L52.9072 -16.9236Z" fill="url(#paint4_linear_5_606)"/>
<path d="M11.5362 -16.9236L9.76953 -16.9236L9.76954 84.8931H11.5362L11.5362 -16.9236Z" fill="url(#paint5_linear_5_606)"/>
</g>
<defs>
<linearGradient id="paint0_linear_5_606" x1="31.3384" y1="0.570801" x2="31.3384" y2="186.571" gradientUnits="userSpaceOnUse">
<stop stop-color="#FB3F3E"/>
<stop offset="1" stop-color="#FF6564"/>
</linearGradient>
<linearGradient id="paint1_linear_5_606" x1="31.3384" y1="0.570801" x2="31.3384" y2="186.571" gradientUnits="userSpaceOnUse">
<stop stop-color="#FB3F3E"/>
<stop offset="1" stop-color="#FF6564"/>
</linearGradient>
<linearGradient id="paint2_linear_5_606" x1="31.3384" y1="0.570801" x2="31.3384" y2="186.571" gradientUnits="userSpaceOnUse">
<stop stop-color="#FB3F3E"/>
<stop offset="1" stop-color="#FF6564"/>
</linearGradient>
<linearGradient id="paint3_linear_5_606" x1="31.3384" y1="0.570801" x2="31.3384" y2="186.571" gradientUnits="userSpaceOnUse">
<stop stop-color="#FB3F3E"/>
<stop offset="1" stop-color="#FF6564"/>
</linearGradient>
<linearGradient id="paint4_linear_5_606" x1="31.3384" y1="0.570801" x2="31.3384" y2="186.571" gradientUnits="userSpaceOnUse">
<stop stop-color="#FB3F3E"/>
<stop offset="1" stop-color="#FF6564"/>
</linearGradient>
<linearGradient id="paint5_linear_5_606" x1="31.3384" y1="0.570801" x2="31.3384" y2="186.571" gradientUnits="userSpaceOnUse">
<stop stop-color="#FB3F3E"/>
<stop offset="1" stop-color="#FF6564"/>
</linearGradient>
</defs>
</svg>
